<?xml version="1.0" encoding="UTF-8" standalone="no"?>
<!DOCTYPE svg PUBLIC "-//W3C//DTD SVG 1.1//EN"
 "http://www.w3.org/Graphics/SVG/1.1/DTD/svg11.dtd">
<!-- Generated by graphviz version 10.0.1 (20240210.2158)
 -->
<!-- Title: ArvoreBinaria Pages: 1 -->
<svg width="187pt" height="349pt"
 viewBox="0.00 0.00 187.18 348.71" xmlns="http://www.w3.org/2000/svg" xmlns:xlink="http://www.w3.org/1999/xlink">
<g id="graph0" class="graph" transform="scale(1 1) rotate(0) translate(4 344.71)">
<title>ArvoreBinaria</title>
<polygon fill="white" stroke="none" points="-4,4 -4,-344.71 183.18,-344.71 183.18,4 -4,4"/>
<!-- 10 -->
<g id="node1" class="node">
<title>10</title>
<defs>
<radialGradient id="node1_r_0" cx="50%" cy="50%" r="75%" fx="33%" fy="3%">
<stop offset="0" style="stop-color:white;stop-opacity:1.;"/>
<stop offset="1" style="stop-color:#ff7700;stop-opacity:1.;"/>
</radialGradient>
</defs>
<ellipse fill="url(#node1_r_0)" stroke="white:#770000" cx="128" cy="-318.54" rx="22.18" ry="22.18"/>
<text text-anchor="middle" x="128" y="-313.49" font-family="Arial Black" font-size="14.00">10</text>
</g>
<!-- 5 -->
<g id="node2" class="node">
<title>5</title>
<defs>
<radialGradient id="node2_r_1" cx="50%" cy="50%" r="75%" fx="33%" fy="3%">
<stop offset="0" style="stop-color:white;stop-opacity:1.;"/>
<stop offset="1" style="stop-color:#ff7700;stop-opacity:1.;"/>
</radialGradient>
</defs>
<ellipse fill="url(#node2_r_1)" stroke="white:#770000" cx="99" cy="-238.18" rx="18" ry="18"/>
<text text-anchor="middle" x="99" y="-233.13" font-family="Arial Black" font-size="14.00">5</text>
</g>
<!-- 10&#45;&gt;5 -->
<g id="edge1" class="edge">
<title>10&#45;&gt;5</title>
<path fill="none" stroke="black" stroke-dasharray="5,2" d="M120.53,-297.36C117.01,-287.83 112.75,-276.33 108.96,-266.08"/>
<polygon fill="black" stroke="black" points="112.36,-265.18 105.6,-257.02 105.79,-267.61 112.36,-265.18"/>
</g>
<!-- 20 -->
<g id="node3" class="node">
<title>20</title>
<defs>
<radialGradient id="node3_r_2" cx="50%" cy="50%" r="75%" fx="33%" fy="3%">
<stop offset="0" style="stop-color:white;stop-opacity:1.;"/>
<stop offset="1" style="stop-color:#ff7700;stop-opacity:1.;"/>
</radialGradient>
</defs>
<ellipse fill="url(#node3_r_2)" stroke="white:#770000" cx="157" cy="-238.18" rx="22.18" ry="22.18"/>
<text text-anchor="middle" x="157" y="-233.13" font-family="Arial Black" font-size="14.00">20</text>
</g>
<!-- 10&#45;&gt;20 -->
<g id="edge2" class="edge">
<title>10&#45;&gt;20</title>
<path fill="none" stroke="black" stroke-dasharray="5,2" d="M135.47,-297.36C138.52,-289.1 142.13,-279.37 145.5,-270.24"/>
<polygon fill="black" stroke="black" points="148.74,-271.57 148.93,-260.98 142.18,-269.14 148.74,-271.57"/>
</g>
<!-- 3 -->
<g id="node4" class="node">
<title>3</title>
<defs>
<radialGradient id="node4_r_3" cx="50%" cy="50%" r="75%" fx="33%" fy="3%">
<stop offset="0" style="stop-color:white;stop-opacity:1.;"/>
<stop offset="1" style="stop-color:#ff7700;stop-opacity:1.;"/>
</radialGradient>
</defs>
<ellipse fill="url(#node4_r_3)" stroke="white:#770000" cx="72" cy="-162" rx="18" ry="18"/>
<text text-anchor="middle" x="72" y="-156.95" font-family="Arial Black" font-size="14.00">3</text>
</g>
<!-- 5&#45;&gt;3 -->
<g id="edge3" class="edge">
<title>5&#45;&gt;3</title>
<path fill="none" stroke="black" stroke-dasharray="5,2" d="M93.01,-220.72C89.72,-211.69 85.57,-200.27 81.82,-189.98"/>
<polygon fill="black" stroke="black" points="85.2,-189.04 78.49,-180.84 78.62,-191.43 85.2,-189.04"/>
</g>
<!-- 7 -->
<g id="node5" class="node">
<title>7</title>
<defs>
<radialGradient id="node5_r_4" cx="50%" cy="50%" r="75%" fx="33%" fy="3%">
<stop offset="0" style="stop-color:white;stop-opacity:1.;"/>
<stop offset="1" style="stop-color:#ff7700;stop-opacity:1.;"/>
</radialGradient>
</defs>
<ellipse fill="url(#node5_r_4)" stroke="white:#770000" cx="126" cy="-162" rx="18" ry="18"/>
<text text-anchor="middle" x="126" y="-156.95" font-family="Arial Black" font-size="14.00">7</text>
</g>
<!-- 5&#45;&gt;7 -->
<g id="edge4" class="edge">
<title>5&#45;&gt;7</title>
<path fill="none" stroke="black" stroke-dasharray="5,2" d="M104.99,-220.72C108.28,-211.69 112.43,-200.27 116.18,-189.98"/>
<polygon fill="black" stroke="black" points="119.38,-191.43 119.51,-180.84 112.8,-189.04 119.38,-191.43"/>
</g>
<!-- 2 -->
<g id="node6" class="node">
<title>2</title>
<defs>
<radialGradient id="node6_r_5" cx="50%" cy="50%" r="75%" fx="33%" fy="3%">
<stop offset="0" style="stop-color:white;stop-opacity:1.;"/>
<stop offset="1" style="stop-color:#ff7700;stop-opacity:1.;"/>
</radialGradient>
</defs>
<ellipse fill="url(#node6_r_5)" stroke="white:#770000" cx="18" cy="-90" rx="18" ry="18"/>
<text text-anchor="middle" x="18" y="-84.95" font-family="Arial Black" font-size="14.00">2</text>
</g>
<!-- 3&#45;&gt;2 -->
<g id="edge5" class="edge">
<title>3&#45;&gt;2</title>
<path fill="none" stroke="black" stroke-dasharray="5,2" d="M61.33,-147.17C54.01,-137.68 44.12,-124.86 35.64,-113.86"/>
<polygon fill="black" stroke="black" points="38.45,-111.78 29.57,-106 32.91,-116.06 38.45,-111.78"/>
</g>
<!-- 4 -->
<g id="node7" class="node">
<title>4</title>
<defs>
<radialGradient id="node7_r_6" cx="50%" cy="50%" r="75%" fx="33%" fy="3%">
<stop offset="0" style="stop-color:white;stop-opacity:1.;"/>
<stop offset="1" style="stop-color:#ff7700;stop-opacity:1.;"/>
</radialGradient>
</defs>
<ellipse fill="url(#node7_r_6)" stroke="white:#770000" cx="72" cy="-90" rx="18" ry="18"/>
<text text-anchor="middle" x="72" y="-84.95" font-family="Arial Black" font-size="14.00">4</text>
</g>
<!-- 3&#45;&gt;4 -->
<g id="edge6" class="edge">
<title>3&#45;&gt;4</title>
<path fill="none" stroke="black" stroke-dasharray="5,2" d="M72,-143.7C72,-136.41 72,-127.73 72,-119.54"/>
<polygon fill="black" stroke="black" points="75.5,-119.62 72,-109.62 68.5,-119.62 75.5,-119.62"/>
</g>
<!-- 6 -->
<g id="node9" class="node">
<title>6</title>
<defs>
<radialGradient id="node9_r_7" cx="50%" cy="50%" r="75%" fx="33%" fy="3%">
<stop offset="0" style="stop-color:white;stop-opacity:1.;"/>
<stop offset="1" style="stop-color:#ff7700;stop-opacity:1.;"/>
</radialGradient>
</defs>
<ellipse fill="url(#node9_r_7)" stroke="white:#770000" cx="126" cy="-90" rx="18" ry="18"/>
<text text-anchor="middle" x="126" y="-84.95" font-family="Arial Black" font-size="14.00">6</text>
</g>
<!-- 7&#45;&gt;6 -->
<g id="edge8" class="edge">
<title>7&#45;&gt;6</title>
<path fill="none" stroke="black" stroke-dasharray="5,2" d="M126,-143.7C126,-136.41 126,-127.73 126,-119.54"/>
<polygon fill="black" stroke="black" points="129.5,-119.62 126,-109.62 122.5,-119.62 129.5,-119.62"/>
</g>
<!-- 1 -->
<g id="node8" class="node">
<title>1</title>
<defs>
<radialGradient id="node8_r_8" cx="50%" cy="50%" r="75%" fx="33%" fy="3%">
<stop offset="0" style="stop-color:white;stop-opacity:1.;"/>
<stop offset="1" style="stop-color:#ff7700;stop-opacity:1.;"/>
</radialGradient>
</defs>
<ellipse fill="url(#node8_r_8)" stroke="white:#770000" cx="18" cy="-18" rx="18" ry="18"/>
<text text-anchor="middle" x="18" y="-12.95" font-family="Arial Black" font-size="14.00">1</text>
</g>
<!-- 2&#45;&gt;1 -->
<g id="edge7" class="edge">
<title>2&#45;&gt;1</title>
<path fill="none" stroke="black" stroke-dasharray="5,2" d="M18,-71.7C18,-64.41 18,-55.73 18,-47.54"/>
<polygon fill="black" stroke="black" points="21.5,-47.62 18,-37.62 14.5,-47.62 21.5,-47.62"/>
</g>
</g>
</svg>
