<?xml version="1.0" encoding="UTF-8" standalone="no"?>
<!DOCTYPE svg PUBLIC "-//W3C//DTD SVG 1.1//EN"
 "http://www.w3.org/Graphics/SVG/1.1/DTD/svg11.dtd">
<!-- Generated by graphviz version 10.0.1 (20240210.2158)
 -->
<!-- Title: ArvoreBinaria Pages: 1 -->
<svg width="224pt" height="288pt"
 viewBox="0.00 0.00 223.80 288.31" xmlns="http://www.w3.org/2000/svg" xmlns:xlink="http://www.w3.org/1999/xlink">
<g id="graph0" class="graph" transform="scale(1 1) rotate(0) translate(4 284.31)">
<title>ArvoreBinaria</title>
<polygon fill="white" stroke="none" points="-4,4 -4,-284.31 219.8,-284.31 219.8,4 -4,4"/>
<!-- 10 -->
<g id="node1" class="node">
<title>10</title>
<defs>
<radialGradient id="node1_r_0" cx="50%" cy="50%" r="75%" fx="33%" fy="3%">
<stop offset="0" style="stop-color:white;stop-opacity:1.;"/>
<stop offset="1" style="stop-color:#ff7700;stop-opacity:1.;"/>
</radialGradient>
</defs>
<ellipse fill="url(#node1_r_0)" stroke="white:#770000" cx="102.62" cy="-258.13" rx="22.18" ry="22.18"/>
<text text-anchor="middle" x="102.62" y="-253.08" font-family="Arial Black" font-size="14.00">10</text>
</g>
<!-- 5 -->
<g id="node2" class="node">
<title>5</title>
<defs>
<radialGradient id="node2_r_1" cx="50%" cy="50%" r="75%" fx="33%" fy="3%">
<stop offset="0" style="stop-color:white;stop-opacity:1.;"/>
<stop offset="1" style="stop-color:#ff7700;stop-opacity:1.;"/>
</radialGradient>
</defs>
<ellipse fill="url(#node2_r_1)" stroke="white:#770000" cx="73.62" cy="-177.77" rx="18" ry="18"/>
<text text-anchor="middle" x="73.62" y="-172.72" font-family="Arial Black" font-size="14.00">5</text>
</g>
<!-- 10&#45;&gt;5 -->
<g id="edge1" class="edge">
<title>10&#45;&gt;5</title>
<path fill="none" stroke="black" stroke-dasharray="5,2" d="M95.15,-236.95C91.63,-227.43 87.37,-215.93 83.58,-205.68"/>
<polygon fill="black" stroke="black" points="86.97,-204.78 80.22,-196.61 80.41,-207.2 86.97,-204.78"/>
</g>
<!-- 20 -->
<g id="node3" class="node">
<title>20</title>
<defs>
<radialGradient id="node3_r_2" cx="50%" cy="50%" r="75%" fx="33%" fy="3%">
<stop offset="0" style="stop-color:white;stop-opacity:1.;"/>
<stop offset="1" style="stop-color:#ff7700;stop-opacity:1.;"/>
</radialGradient>
</defs>
<ellipse fill="url(#node3_r_2)" stroke="white:#770000" cx="131.62" cy="-177.77" rx="22.18" ry="22.18"/>
<text text-anchor="middle" x="131.62" y="-172.72" font-family="Arial Black" font-size="14.00">20</text>
</g>
<!-- 10&#45;&gt;20 -->
<g id="edge2" class="edge">
<title>10&#45;&gt;20</title>
<path fill="none" stroke="black" stroke-dasharray="5,2" d="M110.09,-236.95C113.14,-228.7 116.75,-218.96 120.12,-209.84"/>
<polygon fill="black" stroke="black" points="123.36,-211.17 123.55,-200.58 116.8,-208.74 123.36,-211.17"/>
</g>
<!-- 1 -->
<g id="node4" class="node">
<title>1</title>
<defs>
<radialGradient id="node4_r_3" cx="50%" cy="50%" r="75%" fx="33%" fy="3%">
<stop offset="0" style="stop-color:white;stop-opacity:1.;"/>
<stop offset="1" style="stop-color:#ff7700;stop-opacity:1.;"/>
</radialGradient>
</defs>
<ellipse fill="url(#node4_r_3)" stroke="white:#770000" cx="19.62" cy="-97.42" rx="18" ry="18"/>
<text text-anchor="middle" x="19.62" y="-92.37" font-family="Arial Black" font-size="14.00">1</text>
</g>
<!-- 5&#45;&gt;1 -->
<g id="edge3" class="edge">
<title>5&#45;&gt;1</title>
<path fill="none" stroke="black" stroke-dasharray="5,2" d="M63.71,-162.4C56,-151.21 45.12,-135.42 36.1,-122.33"/>
<polygon fill="black" stroke="black" points="39.06,-120.46 30.5,-114.21 33.3,-124.43 39.06,-120.46"/>
</g>
<!-- 9 -->
<g id="node5" class="node">
<title>9</title>
<defs>
<radialGradient id="node5_r_4" cx="50%" cy="50%" r="75%" fx="33%" fy="3%">
<stop offset="0" style="stop-color:white;stop-opacity:1.;"/>
<stop offset="1" style="stop-color:#ff7700;stop-opacity:1.;"/>
</radialGradient>
</defs>
<ellipse fill="url(#node5_r_4)" stroke="white:#770000" cx="73.62" cy="-97.42" rx="18" ry="18"/>
<text text-anchor="middle" x="73.62" y="-92.37" font-family="Arial Black" font-size="14.00">9</text>
</g>
<!-- 5&#45;&gt;9 -->
<g id="edge4" class="edge">
<title>5&#45;&gt;9</title>
<path fill="none" stroke="black" stroke-dasharray="5,2" d="M73.62,-159.38C73.62,-149.95 73.62,-138.04 73.62,-127.26"/>
<polygon fill="black" stroke="black" points="77.12,-127.27 73.62,-117.27 70.12,-127.27 77.12,-127.27"/>
</g>
<!-- 16 -->
<g id="node7" class="node">
<title>16</title>
<defs>
<radialGradient id="node7_r_5" cx="50%" cy="50%" r="75%" fx="33%" fy="3%">
<stop offset="0" style="stop-color:white;stop-opacity:1.;"/>
<stop offset="1" style="stop-color:#ff7700;stop-opacity:1.;"/>
</radialGradient>
</defs>
<ellipse fill="url(#node7_r_5)" stroke="white:#770000" cx="131.62" cy="-97.42" rx="22.18" ry="22.18"/>
<text text-anchor="middle" x="131.62" y="-92.37" font-family="Arial Black" font-size="14.00">16</text>
</g>
<!-- 20&#45;&gt;16 -->
<g id="edge6" class="edge">
<title>20&#45;&gt;16</title>
<path fill="none" stroke="black" stroke-dasharray="5,2" d="M131.62,-155.36C131.62,-147.99 131.62,-139.56 131.62,-131.49"/>
<polygon fill="black" stroke="black" points="135.12,-131.59 131.62,-121.59 128.12,-131.59 135.12,-131.59"/>
</g>
<!-- 27 -->
<g id="node8" class="node">
<title>27</title>
<defs>
<radialGradient id="node8_r_6" cx="50%" cy="50%" r="75%" fx="33%" fy="3%">
<stop offset="0" style="stop-color:white;stop-opacity:1.;"/>
<stop offset="1" style="stop-color:#ff7700;stop-opacity:1.;"/>
</radialGradient>
</defs>
<ellipse fill="url(#node8_r_6)" stroke="white:#770000" cx="193.62" cy="-97.42" rx="22.18" ry="22.18"/>
<text text-anchor="middle" x="193.62" y="-92.37" font-family="Arial Black" font-size="14.00">27</text>
</g>
<!-- 20&#45;&gt;27 -->
<g id="edge7" class="edge">
<title>20&#45;&gt;27</title>
<path fill="none" stroke="black" stroke-dasharray="5,2" d="M145.07,-159.77C153.28,-149.4 163.93,-135.94 173.16,-124.27"/>
<polygon fill="black" stroke="black" points="175.79,-126.59 179.25,-116.57 170.3,-122.24 175.79,-126.59"/>
</g>
<!-- &#45;1 -->
<g id="node6" class="node">
<title>&#45;1</title>
<defs>
<radialGradient id="node6_r_7" cx="50%" cy="50%" r="75%" fx="33%" fy="3%">
<stop offset="0" style="stop-color:white;stop-opacity:1.;"/>
<stop offset="1" style="stop-color:#ff7700;stop-opacity:1.;"/>
</radialGradient>
</defs>
<ellipse fill="url(#node6_r_7)" stroke="white:#770000" cx="19.62" cy="-19.62" rx="19.62" ry="19.62"/>
<text text-anchor="middle" x="19.62" y="-14.57" font-family="Arial Black" font-size="14.00">&#45;1</text>
</g>
<!-- 1&#45;&gt;&#45;1 -->
<g id="edge5" class="edge">
<title>1&#45;&gt;&#45;1</title>
<path fill="none" stroke="black" stroke-dasharray="5,2" d="M19.62,-79.22C19.62,-70.83 19.62,-60.5 19.62,-50.86"/>
<polygon fill="black" stroke="black" points="23.12,-51.13 19.62,-41.13 16.12,-51.13 23.12,-51.13"/>
</g>
</g>
</svg>
