<?xml version="1.0" encoding="UTF-8" standalone="no"?>
<!DOCTYPE svg PUBLIC "-//W3C//DTD SVG 1.1//EN"
 "http://www.w3.org/Graphics/SVG/1.1/DTD/svg11.dtd">
<!-- Generated by graphviz version 10.0.1 (20240210.2158)
 -->
<!-- Title: ArvoreBinaria Pages: 1 -->
<svg width="222pt" height="365pt"
 viewBox="0.00 0.00 222.18 365.43" xmlns="http://www.w3.org/2000/svg" xmlns:xlink="http://www.w3.org/1999/xlink">
<g id="graph0" class="graph" transform="scale(1 1) rotate(0) translate(4 361.43)">
<title>ArvoreBinaria</title>
<polygon fill="white" stroke="none" points="-4,4 -4,-361.43 218.18,-361.43 218.18,4 -4,4"/>
<!-- 8 -->
<g id="node1" class="node">
<title>8</title>
<defs>
<radialGradient id="node1_r_0" cx="50%" cy="50%" r="75%" fx="33%" fy="3%">
<stop offset="0" style="stop-color:white;stop-opacity:1.;"/>
<stop offset="1" style="stop-color:#ff7700;stop-opacity:1.;"/>
</radialGradient>
</defs>
<ellipse fill="url(#node1_r_0)" stroke="white:#770000" cx="101" cy="-339.43" rx="18" ry="18"/>
<text text-anchor="middle" x="101" y="-334.38" font-family="Arial Black" font-size="14.00">8</text>
</g>
<!-- 4 -->
<g id="node2" class="node">
<title>4</title>
<defs>
<radialGradient id="node2_r_1" cx="50%" cy="50%" r="75%" fx="33%" fy="3%">
<stop offset="0" style="stop-color:white;stop-opacity:1.;"/>
<stop offset="1" style="stop-color:#ff7700;stop-opacity:1.;"/>
</radialGradient>
</defs>
<ellipse fill="url(#node2_r_1)" stroke="white:#770000" cx="72" cy="-263.25" rx="18" ry="18"/>
<text text-anchor="middle" x="72" y="-258.2" font-family="Arial Black" font-size="14.00">4</text>
</g>
<!-- 8&#45;&gt;4 -->
<g id="edge1" class="edge">
<title>8&#45;&gt;4</title>
<path fill="none" stroke="black" stroke-dasharray="5,2" d="M94.71,-322.33C91.16,-313.26 86.63,-301.68 82.56,-291.26"/>
<polygon fill="black" stroke="black" points="85.83,-290.02 78.93,-281.98 79.31,-292.57 85.83,-290.02"/>
</g>
<!-- 18 -->
<g id="node3" class="node">
<title>18</title>
<defs>
<radialGradient id="node3_r_2" cx="50%" cy="50%" r="75%" fx="33%" fy="3%">
<stop offset="0" style="stop-color:white;stop-opacity:1.;"/>
<stop offset="1" style="stop-color:#ff7700;stop-opacity:1.;"/>
</radialGradient>
</defs>
<ellipse fill="url(#node3_r_2)" stroke="white:#770000" cx="130" cy="-263.25" rx="22.18" ry="22.18"/>
<text text-anchor="middle" x="130" y="-258.2" font-family="Arial Black" font-size="14.00">18</text>
</g>
<!-- 8&#45;&gt;18 -->
<g id="edge2" class="edge">
<title>8&#45;&gt;18</title>
<path fill="none" stroke="black" stroke-dasharray="5,2" d="M107.29,-322.33C110.43,-314.31 114.33,-304.33 118.01,-294.92"/>
<polygon fill="black" stroke="black" points="121.23,-296.28 121.62,-285.69 114.72,-293.73 121.23,-296.28"/>
</g>
<!-- 2 -->
<g id="node4" class="node">
<title>2</title>
<defs>
<radialGradient id="node4_r_3" cx="50%" cy="50%" r="75%" fx="33%" fy="3%">
<stop offset="0" style="stop-color:white;stop-opacity:1.;"/>
<stop offset="1" style="stop-color:#ff7700;stop-opacity:1.;"/>
</radialGradient>
</defs>
<ellipse fill="url(#node4_r_3)" stroke="white:#770000" cx="18" cy="-182.89" rx="18" ry="18"/>
<text text-anchor="middle" x="18" y="-177.84" font-family="Arial Black" font-size="14.00">2</text>
</g>
<!-- 4&#45;&gt;2 -->
<g id="edge3" class="edge">
<title>4&#45;&gt;2</title>
<path fill="none" stroke="black" stroke-dasharray="5,2" d="M62.1,-247.88C54.38,-236.68 43.5,-220.89 34.48,-207.8"/>
<polygon fill="black" stroke="black" points="37.44,-205.93 28.88,-199.68 31.68,-209.9 37.44,-205.93"/>
</g>
<!-- 6 -->
<g id="node5" class="node">
<title>6</title>
<defs>
<radialGradient id="node5_r_4" cx="50%" cy="50%" r="75%" fx="33%" fy="3%">
<stop offset="0" style="stop-color:white;stop-opacity:1.;"/>
<stop offset="1" style="stop-color:#ff7700;stop-opacity:1.;"/>
</radialGradient>
</defs>
<ellipse fill="url(#node5_r_4)" stroke="white:#770000" cx="72" cy="-182.89" rx="18" ry="18"/>
<text text-anchor="middle" x="72" y="-177.84" font-family="Arial Black" font-size="14.00">6</text>
</g>
<!-- 4&#45;&gt;6 -->
<g id="edge4" class="edge">
<title>4&#45;&gt;6</title>
<path fill="none" stroke="black" stroke-dasharray="5,2" d="M72,-244.86C72,-235.42 72,-223.52 72,-212.74"/>
<polygon fill="black" stroke="black" points="75.5,-212.75 72,-202.75 68.5,-212.75 75.5,-212.75"/>
</g>
<!-- 12 -->
<g id="node6" class="node">
<title>12</title>
<defs>
<radialGradient id="node6_r_5" cx="50%" cy="50%" r="75%" fx="33%" fy="3%">
<stop offset="0" style="stop-color:white;stop-opacity:1.;"/>
<stop offset="1" style="stop-color:#ff7700;stop-opacity:1.;"/>
</radialGradient>
</defs>
<ellipse fill="url(#node6_r_5)" stroke="white:#770000" cx="130" cy="-182.89" rx="22.18" ry="22.18"/>
<text text-anchor="middle" x="130" y="-177.84" font-family="Arial Black" font-size="14.00">12</text>
</g>
<!-- 18&#45;&gt;12 -->
<g id="edge5" class="edge">
<title>18&#45;&gt;12</title>
<path fill="none" stroke="black" stroke-dasharray="5,2" d="M130,-240.84C130,-233.47 130,-225.04 130,-216.96"/>
<polygon fill="black" stroke="black" points="133.5,-217.06 130,-207.06 126.5,-217.06 133.5,-217.06"/>
</g>
<!-- 20 -->
<g id="node7" class="node">
<title>20</title>
<defs>
<radialGradient id="node7_r_6" cx="50%" cy="50%" r="75%" fx="33%" fy="3%">
<stop offset="0" style="stop-color:white;stop-opacity:1.;"/>
<stop offset="1" style="stop-color:#ff7700;stop-opacity:1.;"/>
</radialGradient>
</defs>
<ellipse fill="url(#node7_r_6)" stroke="white:#770000" cx="192" cy="-182.89" rx="22.18" ry="22.18"/>
<text text-anchor="middle" x="192" y="-177.84" font-family="Arial Black" font-size="14.00">20</text>
</g>
<!-- 18&#45;&gt;20 -->
<g id="edge6" class="edge">
<title>18&#45;&gt;20</title>
<path fill="none" stroke="black" stroke-dasharray="5,2" d="M143.45,-245.25C151.66,-234.88 162.31,-221.41 171.55,-209.74"/>
<polygon fill="black" stroke="black" points="174.17,-212.06 177.63,-202.05 168.68,-207.72 174.17,-212.06"/>
</g>
<!-- 10 -->
<g id="node8" class="node">
<title>10</title>
<defs>
<radialGradient id="node8_r_7" cx="50%" cy="50%" r="75%" fx="33%" fy="3%">
<stop offset="0" style="stop-color:white;stop-opacity:1.;"/>
<stop offset="1" style="stop-color:#ff7700;stop-opacity:1.;"/>
</radialGradient>
</defs>
<ellipse fill="url(#node8_r_7)" stroke="white:#770000" cx="99" cy="-102.54" rx="22.18" ry="22.18"/>
<text text-anchor="middle" x="99" y="-97.49" font-family="Arial Black" font-size="14.00">10</text>
</g>
<!-- 12&#45;&gt;10 -->
<g id="edge7" class="edge">
<title>12&#45;&gt;10</title>
<path fill="none" stroke="black" stroke-dasharray="5,2" d="M122.02,-161.71C118.69,-153.3 114.75,-143.36 111.09,-134.08"/>
<polygon fill="black" stroke="black" points="114.45,-133.06 107.51,-125.05 107.94,-135.64 114.45,-133.06"/>
</g>
<!-- 16 -->
<g id="node9" class="node">
<title>16</title>
<defs>
<radialGradient id="node9_r_8" cx="50%" cy="50%" r="75%" fx="33%" fy="3%">
<stop offset="0" style="stop-color:white;stop-opacity:1.;"/>
<stop offset="1" style="stop-color:#ff7700;stop-opacity:1.;"/>
</radialGradient>
</defs>
<ellipse fill="url(#node9_r_8)" stroke="white:#770000" cx="161" cy="-102.54" rx="22.18" ry="22.18"/>
<text text-anchor="middle" x="161" y="-97.49" font-family="Arial Black" font-size="14.00">16</text>
</g>
<!-- 12&#45;&gt;16 -->
<g id="edge8" class="edge">
<title>12&#45;&gt;16</title>
<path fill="none" stroke="black" stroke-dasharray="5,2" d="M137.98,-161.71C141.31,-153.3 145.25,-143.36 148.91,-134.08"/>
<polygon fill="black" stroke="black" points="152.06,-135.64 152.49,-125.05 145.55,-133.06 152.06,-135.64"/>
</g>
<!-- 14 -->
<g id="node10" class="node">
<title>14</title>
<defs>
<radialGradient id="node10_r_9" cx="50%" cy="50%" r="75%" fx="33%" fy="3%">
<stop offset="0" style="stop-color:white;stop-opacity:1.;"/>
<stop offset="1" style="stop-color:#ff7700;stop-opacity:1.;"/>
</radialGradient>
</defs>
<ellipse fill="url(#node10_r_9)" stroke="white:#770000" cx="161" cy="-22.18" rx="22.18" ry="22.18"/>
<text text-anchor="middle" x="161" y="-17.13" font-family="Arial Black" font-size="14.00">14</text>
</g>
<!-- 16&#45;&gt;14 -->
<g id="edge9" class="edge">
<title>16&#45;&gt;14</title>
<path fill="none" stroke="black" stroke-dasharray="5,2" d="M161,-80.12C161,-72.76 161,-64.33 161,-56.25"/>
<polygon fill="black" stroke="black" points="164.5,-56.35 161,-46.35 157.5,-56.35 164.5,-56.35"/>
</g>
</g>
</svg>
