<?xml version="1.0" encoding="UTF-8" standalone="no"?>
<!DOCTYPE svg PUBLIC "-//W3C//DTD SVG 1.1//EN"
 "http://www.w3.org/Graphics/SVG/1.1/DTD/svg11.dtd">
<!-- Generated by graphviz version 10.0.1 (20240210.2158)
 -->
<!-- Title: ArvoreBinaria Pages: 1 -->
<svg width="253pt" height="285pt"
 viewBox="0.00 0.00 253.18 285.07" xmlns="http://www.w3.org/2000/svg" xmlns:xlink="http://www.w3.org/1999/xlink">
<g id="graph0" class="graph" transform="scale(1 1) rotate(0) translate(4 281.07)">
<title>ArvoreBinaria</title>
<polygon fill="white" stroke="none" points="-4,4 -4,-281.07 249.18,-281.07 249.18,4 -4,4"/>
<!-- 8 -->
<g id="node1" class="node">
<title>8</title>
<defs>
<radialGradient id="node1_r_0" cx="50%" cy="50%" r="75%" fx="33%" fy="3%">
<stop offset="0" style="stop-color:white;stop-opacity:1.;"/>
<stop offset="1" style="stop-color:#ff7700;stop-opacity:1.;"/>
</radialGradient>
</defs>
<ellipse fill="url(#node1_r_0)" stroke="white:#770000" cx="101" cy="-259.07" rx="18" ry="18"/>
<text text-anchor="middle" x="101" y="-254.02" font-family="Arial Black" font-size="14.00">8</text>
</g>
<!-- 4 -->
<g id="node2" class="node">
<title>4</title>
<defs>
<radialGradient id="node2_r_1" cx="50%" cy="50%" r="75%" fx="33%" fy="3%">
<stop offset="0" style="stop-color:white;stop-opacity:1.;"/>
<stop offset="1" style="stop-color:#ff7700;stop-opacity:1.;"/>
</radialGradient>
</defs>
<ellipse fill="url(#node2_r_1)" stroke="white:#770000" cx="72" cy="-182.89" rx="18" ry="18"/>
<text text-anchor="middle" x="72" y="-177.84" font-family="Arial Black" font-size="14.00">4</text>
</g>
<!-- 8&#45;&gt;4 -->
<g id="edge1" class="edge">
<title>8&#45;&gt;4</title>
<path fill="none" stroke="black" stroke-dasharray="5,2" d="M94.71,-241.97C91.16,-232.9 86.63,-221.33 82.56,-210.9"/>
<polygon fill="black" stroke="black" points="85.83,-209.66 78.93,-201.62 79.31,-212.21 85.83,-209.66"/>
</g>
<!-- 12 -->
<g id="node3" class="node">
<title>12</title>
<defs>
<radialGradient id="node3_r_2" cx="50%" cy="50%" r="75%" fx="33%" fy="3%">
<stop offset="0" style="stop-color:white;stop-opacity:1.;"/>
<stop offset="1" style="stop-color:#ff7700;stop-opacity:1.;"/>
</radialGradient>
</defs>
<ellipse fill="url(#node3_r_2)" stroke="white:#770000" cx="130" cy="-182.89" rx="22.18" ry="22.18"/>
<text text-anchor="middle" x="130" y="-177.84" font-family="Arial Black" font-size="14.00">12</text>
</g>
<!-- 8&#45;&gt;12 -->
<g id="edge2" class="edge">
<title>8&#45;&gt;12</title>
<path fill="none" stroke="black" stroke-dasharray="5,2" d="M107.29,-241.97C110.43,-233.95 114.33,-223.97 118.01,-214.56"/>
<polygon fill="black" stroke="black" points="121.23,-215.92 121.62,-205.34 114.72,-213.38 121.23,-215.92"/>
</g>
<!-- 2 -->
<g id="node4" class="node">
<title>2</title>
<defs>
<radialGradient id="node4_r_3" cx="50%" cy="50%" r="75%" fx="33%" fy="3%">
<stop offset="0" style="stop-color:white;stop-opacity:1.;"/>
<stop offset="1" style="stop-color:#ff7700;stop-opacity:1.;"/>
</radialGradient>
</defs>
<ellipse fill="url(#node4_r_3)" stroke="white:#770000" cx="18" cy="-102.54" rx="18" ry="18"/>
<text text-anchor="middle" x="18" y="-97.49" font-family="Arial Black" font-size="14.00">2</text>
</g>
<!-- 4&#45;&gt;2 -->
<g id="edge3" class="edge">
<title>4&#45;&gt;2</title>
<path fill="none" stroke="black" stroke-dasharray="5,2" d="M62.1,-167.52C54.38,-156.32 43.5,-140.54 34.48,-127.45"/>
<polygon fill="black" stroke="black" points="37.44,-125.58 28.88,-119.33 31.68,-129.55 37.44,-125.58"/>
</g>
<!-- 6 -->
<g id="node5" class="node">
<title>6</title>
<defs>
<radialGradient id="node5_r_4" cx="50%" cy="50%" r="75%" fx="33%" fy="3%">
<stop offset="0" style="stop-color:white;stop-opacity:1.;"/>
<stop offset="1" style="stop-color:#ff7700;stop-opacity:1.;"/>
</radialGradient>
</defs>
<ellipse fill="url(#node5_r_4)" stroke="white:#770000" cx="72" cy="-102.54" rx="18" ry="18"/>
<text text-anchor="middle" x="72" y="-97.49" font-family="Arial Black" font-size="14.00">6</text>
</g>
<!-- 4&#45;&gt;6 -->
<g id="edge4" class="edge">
<title>4&#45;&gt;6</title>
<path fill="none" stroke="black" stroke-dasharray="5,2" d="M72,-164.5C72,-155.07 72,-143.16 72,-132.38"/>
<polygon fill="black" stroke="black" points="75.5,-132.39 72,-122.39 68.5,-132.39 75.5,-132.39"/>
</g>
<!-- 10 -->
<g id="node6" class="node">
<title>10</title>
<defs>
<radialGradient id="node6_r_5" cx="50%" cy="50%" r="75%" fx="33%" fy="3%">
<stop offset="0" style="stop-color:white;stop-opacity:1.;"/>
<stop offset="1" style="stop-color:#ff7700;stop-opacity:1.;"/>
</radialGradient>
</defs>
<ellipse fill="url(#node6_r_5)" stroke="white:#770000" cx="130" cy="-102.54" rx="22.18" ry="22.18"/>
<text text-anchor="middle" x="130" y="-97.49" font-family="Arial Black" font-size="14.00">10</text>
</g>
<!-- 12&#45;&gt;10 -->
<g id="edge5" class="edge">
<title>12&#45;&gt;10</title>
<path fill="none" stroke="black" stroke-dasharray="5,2" d="M130,-160.48C130,-153.11 130,-144.68 130,-136.61"/>
<polygon fill="black" stroke="black" points="133.5,-136.71 130,-126.71 126.5,-136.71 133.5,-136.71"/>
</g>
<!-- 16 -->
<g id="node7" class="node">
<title>16</title>
<defs>
<radialGradient id="node7_r_6" cx="50%" cy="50%" r="75%" fx="33%" fy="3%">
<stop offset="0" style="stop-color:white;stop-opacity:1.;"/>
<stop offset="1" style="stop-color:#ff7700;stop-opacity:1.;"/>
</radialGradient>
</defs>
<ellipse fill="url(#node7_r_6)" stroke="white:#770000" cx="192" cy="-102.54" rx="22.18" ry="22.18"/>
<text text-anchor="middle" x="192" y="-97.49" font-family="Arial Black" font-size="14.00">16</text>
</g>
<!-- 12&#45;&gt;16 -->
<g id="edge6" class="edge">
<title>12&#45;&gt;16</title>
<path fill="none" stroke="black" stroke-dasharray="5,2" d="M143.45,-164.89C151.66,-154.52 162.31,-141.06 171.55,-129.39"/>
<polygon fill="black" stroke="black" points="174.17,-131.7 177.63,-121.69 168.68,-127.36 174.17,-131.7"/>
</g>
<!-- 14 -->
<g id="node8" class="node">
<title>14</title>
<defs>
<radialGradient id="node8_r_7" cx="50%" cy="50%" r="75%" fx="33%" fy="3%">
<stop offset="0" style="stop-color:white;stop-opacity:1.;"/>
<stop offset="1" style="stop-color:#ff7700;stop-opacity:1.;"/>
</radialGradient>
</defs>
<ellipse fill="url(#node8_r_7)" stroke="white:#770000" cx="161" cy="-22.18" rx="22.18" ry="22.18"/>
<text text-anchor="middle" x="161" y="-17.13" font-family="Arial Black" font-size="14.00">14</text>
</g>
<!-- 16&#45;&gt;14 -->
<g id="edge7" class="edge">
<title>16&#45;&gt;14</title>
<path fill="none" stroke="black" stroke-dasharray="5,2" d="M184.02,-81.36C180.69,-72.95 176.75,-63 173.09,-53.73"/>
<polygon fill="black" stroke="black" points="176.45,-52.71 169.51,-44.7 169.94,-55.28 176.45,-52.71"/>
</g>
<!-- 20 -->
<g id="node9" class="node">
<title>20</title>
<defs>
<radialGradient id="node9_r_8" cx="50%" cy="50%" r="75%" fx="33%" fy="3%">
<stop offset="0" style="stop-color:white;stop-opacity:1.;"/>
<stop offset="1" style="stop-color:#ff7700;stop-opacity:1.;"/>
</radialGradient>
</defs>
<ellipse fill="url(#node9_r_8)" stroke="white:#770000" cx="223" cy="-22.18" rx="22.18" ry="22.18"/>
<text text-anchor="middle" x="223" y="-17.13" font-family="Arial Black" font-size="14.00">20</text>
</g>
<!-- 16&#45;&gt;20 -->
<g id="edge8" class="edge">
<title>16&#45;&gt;20</title>
<path fill="none" stroke="black" stroke-dasharray="5,2" d="M199.98,-81.36C203.31,-72.95 207.25,-63 210.91,-53.73"/>
<polygon fill="black" stroke="black" points="214.06,-55.28 214.49,-44.7 207.55,-52.71 214.06,-55.28"/>
</g>
</g>
</svg>
