<?xml version="1.0" encoding="UTF-8" standalone="no"?>
<!DOCTYPE svg PUBLIC "-//W3C//DTD SVG 1.1//EN"
 "http://www.w3.org/Graphics/SVG/1.1/DTD/svg11.dtd">
<!-- Generated by graphviz version 10.0.1 (20240210.2158)
 -->
<!-- Title: ArvoreBinaria Pages: 1 -->
<svg width="52pt" height="717pt"
 viewBox="0.00 0.00 52.36 717.07" xmlns="http://www.w3.org/2000/svg" xmlns:xlink="http://www.w3.org/1999/xlink">
<g id="graph0" class="graph" transform="scale(1 1) rotate(0) translate(4 713.07)">
<title>ArvoreBinaria</title>
<polygon fill="white" stroke="none" points="-4,4 -4,-713.07 48.36,-713.07 48.36,4 -4,4"/>
<!-- 0 -->
<g id="node1" class="node">
<title>0</title>
<defs>
<radialGradient id="node1_r_0" cx="50%" cy="50%" r="75%" fx="33%" fy="3%">
<stop offset="0" style="stop-color:white;stop-opacity:1.;"/>
<stop offset="1" style="stop-color:#ff7700;stop-opacity:1.;"/>
</radialGradient>
</defs>
<ellipse fill="url(#node1_r_0)" stroke="white:#770000" cx="22.18" cy="-691.07" rx="18" ry="18"/>
<text text-anchor="middle" x="22.18" y="-686.02" font-family="Arial Black" font-size="14.00">0</text>
</g>
<!-- 1 -->
<g id="node2" class="node">
<title>1</title>
<defs>
<radialGradient id="node2_r_1" cx="50%" cy="50%" r="75%" fx="33%" fy="3%">
<stop offset="0" style="stop-color:white;stop-opacity:1.;"/>
<stop offset="1" style="stop-color:#ff7700;stop-opacity:1.;"/>
</radialGradient>
</defs>
<ellipse fill="url(#node2_r_1)" stroke="white:#770000" cx="22.18" cy="-619.07" rx="18" ry="18"/>
<text text-anchor="middle" x="22.18" y="-614.02" font-family="Arial Black" font-size="14.00">1</text>
</g>
<!-- 0&#45;&gt;1 -->
<g id="edge1" class="edge">
<title>0&#45;&gt;1</title>
<path fill="none" stroke="black" stroke-dasharray="5,2" d="M22.18,-672.77C22.18,-665.48 22.18,-656.8 22.18,-648.61"/>
<polygon fill="black" stroke="black" points="25.68,-648.69 22.18,-638.69 18.68,-648.69 25.68,-648.69"/>
</g>
<!-- 2 -->
<g id="node3" class="node">
<title>2</title>
<defs>
<radialGradient id="node3_r_2" cx="50%" cy="50%" r="75%" fx="33%" fy="3%">
<stop offset="0" style="stop-color:white;stop-opacity:1.;"/>
<stop offset="1" style="stop-color:#ff7700;stop-opacity:1.;"/>
</radialGradient>
</defs>
<ellipse fill="url(#node3_r_2)" stroke="white:#770000" cx="22.18" cy="-547.07" rx="18" ry="18"/>
<text text-anchor="middle" x="22.18" y="-542.02" font-family="Arial Black" font-size="14.00">2</text>
</g>
<!-- 1&#45;&gt;2 -->
<g id="edge2" class="edge">
<title>1&#45;&gt;2</title>
<path fill="none" stroke="black" stroke-dasharray="5,2" d="M22.18,-600.77C22.18,-593.48 22.18,-584.8 22.18,-576.61"/>
<polygon fill="black" stroke="black" points="25.68,-576.69 22.18,-566.69 18.68,-576.69 25.68,-576.69"/>
</g>
<!-- 4 -->
<g id="node4" class="node">
<title>4</title>
<defs>
<radialGradient id="node4_r_3" cx="50%" cy="50%" r="75%" fx="33%" fy="3%">
<stop offset="0" style="stop-color:white;stop-opacity:1.;"/>
<stop offset="1" style="stop-color:#ff7700;stop-opacity:1.;"/>
</radialGradient>
</defs>
<ellipse fill="url(#node4_r_3)" stroke="white:#770000" cx="22.18" cy="-475.07" rx="18" ry="18"/>
<text text-anchor="middle" x="22.18" y="-470.02" font-family="Arial Black" font-size="14.00">4</text>
</g>
<!-- 2&#45;&gt;4 -->
<g id="edge3" class="edge">
<title>2&#45;&gt;4</title>
<path fill="none" stroke="black" stroke-dasharray="5,2" d="M22.18,-528.77C22.18,-521.48 22.18,-512.8 22.18,-504.61"/>
<polygon fill="black" stroke="black" points="25.68,-504.69 22.18,-494.69 18.68,-504.69 25.68,-504.69"/>
</g>
<!-- 6 -->
<g id="node5" class="node">
<title>6</title>
<defs>
<radialGradient id="node5_r_4" cx="50%" cy="50%" r="75%" fx="33%" fy="3%">
<stop offset="0" style="stop-color:white;stop-opacity:1.;"/>
<stop offset="1" style="stop-color:#ff7700;stop-opacity:1.;"/>
</radialGradient>
</defs>
<ellipse fill="url(#node5_r_4)" stroke="white:#770000" cx="22.18" cy="-403.07" rx="18" ry="18"/>
<text text-anchor="middle" x="22.18" y="-398.02" font-family="Arial Black" font-size="14.00">6</text>
</g>
<!-- 4&#45;&gt;6 -->
<g id="edge4" class="edge">
<title>4&#45;&gt;6</title>
<path fill="none" stroke="black" stroke-dasharray="5,2" d="M22.18,-456.77C22.18,-449.48 22.18,-440.8 22.18,-432.61"/>
<polygon fill="black" stroke="black" points="25.68,-432.69 22.18,-422.69 18.68,-432.69 25.68,-432.69"/>
</g>
<!-- 8 -->
<g id="node6" class="node">
<title>8</title>
<defs>
<radialGradient id="node6_r_5" cx="50%" cy="50%" r="75%" fx="33%" fy="3%">
<stop offset="0" style="stop-color:white;stop-opacity:1.;"/>
<stop offset="1" style="stop-color:#ff7700;stop-opacity:1.;"/>
</radialGradient>
</defs>
<ellipse fill="url(#node6_r_5)" stroke="white:#770000" cx="22.18" cy="-331.07" rx="18" ry="18"/>
<text text-anchor="middle" x="22.18" y="-326.02" font-family="Arial Black" font-size="14.00">8</text>
</g>
<!-- 6&#45;&gt;8 -->
<g id="edge5" class="edge">
<title>6&#45;&gt;8</title>
<path fill="none" stroke="black" stroke-dasharray="5,2" d="M22.18,-384.77C22.18,-377.48 22.18,-368.8 22.18,-360.61"/>
<polygon fill="black" stroke="black" points="25.68,-360.69 22.18,-350.69 18.68,-360.69 25.68,-360.69"/>
</g>
<!-- 9 -->
<g id="node7" class="node">
<title>9</title>
<defs>
<radialGradient id="node7_r_6" cx="50%" cy="50%" r="75%" fx="33%" fy="3%">
<stop offset="0" style="stop-color:white;stop-opacity:1.;"/>
<stop offset="1" style="stop-color:#ff7700;stop-opacity:1.;"/>
</radialGradient>
</defs>
<ellipse fill="url(#node7_r_6)" stroke="white:#770000" cx="22.18" cy="-259.07" rx="18" ry="18"/>
<text text-anchor="middle" x="22.18" y="-254.02" font-family="Arial Black" font-size="14.00">9</text>
</g>
<!-- 8&#45;&gt;9 -->
<g id="edge6" class="edge">
<title>8&#45;&gt;9</title>
<path fill="none" stroke="black" stroke-dasharray="5,2" d="M22.18,-312.77C22.18,-305.48 22.18,-296.8 22.18,-288.61"/>
<polygon fill="black" stroke="black" points="25.68,-288.69 22.18,-278.69 18.68,-288.69 25.68,-288.69"/>
</g>
<!-- 27 -->
<g id="node8" class="node">
<title>27</title>
<defs>
<radialGradient id="node8_r_7" cx="50%" cy="50%" r="75%" fx="33%" fy="3%">
<stop offset="0" style="stop-color:white;stop-opacity:1.;"/>
<stop offset="1" style="stop-color:#ff7700;stop-opacity:1.;"/>
</radialGradient>
</defs>
<ellipse fill="url(#node8_r_7)" stroke="white:#770000" cx="22.18" cy="-182.89" rx="22.18" ry="22.18"/>
<text text-anchor="middle" x="22.18" y="-177.84" font-family="Arial Black" font-size="14.00">27</text>
</g>
<!-- 9&#45;&gt;27 -->
<g id="edge7" class="edge">
<title>9&#45;&gt;27</title>
<path fill="none" stroke="black" stroke-dasharray="5,2" d="M22.18,-240.87C22.18,-233.71 22.18,-225.15 22.18,-216.87"/>
<polygon fill="black" stroke="black" points="25.68,-217.04 22.18,-207.04 18.68,-217.04 25.68,-217.04"/>
</g>
<!-- 42 -->
<g id="node9" class="node">
<title>42</title>
<defs>
<radialGradient id="node9_r_8" cx="50%" cy="50%" r="75%" fx="33%" fy="3%">
<stop offset="0" style="stop-color:white;stop-opacity:1.;"/>
<stop offset="1" style="stop-color:#ff7700;stop-opacity:1.;"/>
</radialGradient>
</defs>
<ellipse fill="url(#node9_r_8)" stroke="white:#770000" cx="22.18" cy="-102.54" rx="22.18" ry="22.18"/>
<text text-anchor="middle" x="22.18" y="-97.49" font-family="Arial Black" font-size="14.00">42</text>
</g>
<!-- 27&#45;&gt;42 -->
<g id="edge8" class="edge">
<title>27&#45;&gt;42</title>
<path fill="none" stroke="black" stroke-dasharray="5,2" d="M22.18,-160.48C22.18,-153.11 22.18,-144.68 22.18,-136.61"/>
<polygon fill="black" stroke="black" points="25.68,-136.71 22.18,-126.71 18.68,-136.71 25.68,-136.71"/>
</g>
<!-- 54 -->
<g id="node10" class="node">
<title>54</title>
<defs>
<radialGradient id="node10_r_9" cx="50%" cy="50%" r="75%" fx="33%" fy="3%">
<stop offset="0" style="stop-color:white;stop-opacity:1.;"/>
<stop offset="1" style="stop-color:#ff7700;stop-opacity:1.;"/>
</radialGradient>
</defs>
<ellipse fill="url(#node10_r_9)" stroke="white:#770000" cx="22.18" cy="-22.18" rx="22.18" ry="22.18"/>
<text text-anchor="middle" x="22.18" y="-17.13" font-family="Arial Black" font-size="14.00">54</text>
</g>
<!-- 42&#45;&gt;54 -->
<g id="edge9" class="edge">
<title>42&#45;&gt;54</title>
<path fill="none" stroke="black" stroke-dasharray="5,2" d="M22.18,-80.12C22.18,-72.76 22.18,-64.33 22.18,-56.25"/>
<polygon fill="black" stroke="black" points="25.68,-56.35 22.18,-46.35 18.68,-56.35 25.68,-56.35"/>
</g>
</g>
</svg>
