<?xml version="1.0" encoding="UTF-8" standalone="no"?>
<!DOCTYPE svg PUBLIC "-//W3C//DTD SVG 1.1//EN"
 "http://www.w3.org/Graphics/SVG/1.1/DTD/svg11.dtd">
<!-- Generated by graphviz version 10.0.1 (20240210.2158)
 -->
<!-- Title: ArvoreBinaria Pages: 1 -->
<svg width="206pt" height="188pt"
 viewBox="0.00 0.00 206.00 188.00" xmlns="http://www.w3.org/2000/svg" xmlns:xlink="http://www.w3.org/1999/xlink">
<g id="graph0" class="graph" transform="scale(1 1) rotate(0) translate(4 184)">
<title>ArvoreBinaria</title>
<polygon fill="white" stroke="none" points="-4,4 -4,-184 202,-184 202,4 -4,4"/>
<!-- 4 -->
<g id="node1" class="node">
<title>4</title>
<defs>
<radialGradient id="node1_r_0" cx="50%" cy="50%" r="75%" fx="33%" fy="3%">
<stop offset="0" style="stop-color:white;stop-opacity:1.;"/>
<stop offset="1" style="stop-color:#ff7700;stop-opacity:1.;"/>
</radialGradient>
</defs>
<ellipse fill="url(#node1_r_0)" stroke="white:#770000" cx="99" cy="-162" rx="18" ry="18"/>
<text text-anchor="middle" x="99" y="-156.95" font-family="Arial Black" font-size="14.00">4</text>
</g>
<!-- 2 -->
<g id="node2" class="node">
<title>2</title>
<defs>
<radialGradient id="node2_r_1" cx="50%" cy="50%" r="75%" fx="33%" fy="3%">
<stop offset="0" style="stop-color:white;stop-opacity:1.;"/>
<stop offset="1" style="stop-color:#ff7700;stop-opacity:1.;"/>
</radialGradient>
</defs>
<ellipse fill="url(#node2_r_1)" stroke="white:#770000" cx="72" cy="-90" rx="18" ry="18"/>
<text text-anchor="middle" x="72" y="-84.95" font-family="Arial Black" font-size="14.00">2</text>
</g>
<!-- 4&#45;&gt;2 -->
<g id="edge1" class="edge">
<title>4&#45;&gt;2</title>
<path fill="none" stroke="black" stroke-dasharray="5,2" d="M92.74,-144.76C89.64,-136.72 85.81,-126.81 82.3,-117.69"/>
<polygon fill="black" stroke="black" points="85.64,-116.63 78.77,-108.56 79.11,-119.15 85.64,-116.63"/>
</g>
<!-- 6 -->
<g id="node3" class="node">
<title>6</title>
<defs>
<radialGradient id="node3_r_2" cx="50%" cy="50%" r="75%" fx="33%" fy="3%">
<stop offset="0" style="stop-color:white;stop-opacity:1.;"/>
<stop offset="1" style="stop-color:#ff7700;stop-opacity:1.;"/>
</radialGradient>
</defs>
<ellipse fill="url(#node3_r_2)" stroke="white:#770000" cx="126" cy="-90" rx="18" ry="18"/>
<text text-anchor="middle" x="126" y="-84.95" font-family="Arial Black" font-size="14.00">6</text>
</g>
<!-- 4&#45;&gt;6 -->
<g id="edge2" class="edge">
<title>4&#45;&gt;6</title>
<path fill="none" stroke="black" stroke-dasharray="5,2" d="M105.26,-144.76C108.36,-136.72 112.19,-126.81 115.7,-117.69"/>
<polygon fill="black" stroke="black" points="118.89,-119.15 119.23,-108.56 112.36,-116.63 118.89,-119.15"/>
</g>
<!-- 1 -->
<g id="node4" class="node">
<title>1</title>
<defs>
<radialGradient id="node4_r_3" cx="50%" cy="50%" r="75%" fx="33%" fy="3%">
<stop offset="0" style="stop-color:white;stop-opacity:1.;"/>
<stop offset="1" style="stop-color:#ff7700;stop-opacity:1.;"/>
</radialGradient>
</defs>
<ellipse fill="url(#node4_r_3)" stroke="white:#770000" cx="18" cy="-18" rx="18" ry="18"/>
<text text-anchor="middle" x="18" y="-12.95" font-family="Arial Black" font-size="14.00">1</text>
</g>
<!-- 2&#45;&gt;1 -->
<g id="edge3" class="edge">
<title>2&#45;&gt;1</title>
<path fill="none" stroke="black" stroke-dasharray="5,2" d="M61.33,-75.17C54.01,-65.68 44.12,-52.86 35.64,-41.86"/>
<polygon fill="black" stroke="black" points="38.45,-39.78 29.57,-34 32.91,-44.06 38.45,-39.78"/>
</g>
<!-- 3 -->
<g id="node5" class="node">
<title>3</title>
<defs>
<radialGradient id="node5_r_4" cx="50%" cy="50%" r="75%" fx="33%" fy="3%">
<stop offset="0" style="stop-color:white;stop-opacity:1.;"/>
<stop offset="1" style="stop-color:#ff7700;stop-opacity:1.;"/>
</radialGradient>
</defs>
<ellipse fill="url(#node5_r_4)" stroke="white:#770000" cx="72" cy="-18" rx="18" ry="18"/>
<text text-anchor="middle" x="72" y="-12.95" font-family="Arial Black" font-size="14.00">3</text>
</g>
<!-- 2&#45;&gt;3 -->
<g id="edge4" class="edge">
<title>2&#45;&gt;3</title>
<path fill="none" stroke="black" stroke-dasharray="5,2" d="M72,-71.7C72,-64.41 72,-55.73 72,-47.54"/>
<polygon fill="black" stroke="black" points="75.5,-47.62 72,-37.62 68.5,-47.62 75.5,-47.62"/>
</g>
<!-- 5 -->
<g id="node6" class="node">
<title>5</title>
<defs>
<radialGradient id="node6_r_5" cx="50%" cy="50%" r="75%" fx="33%" fy="3%">
<stop offset="0" style="stop-color:white;stop-opacity:1.;"/>
<stop offset="1" style="stop-color:#ff7700;stop-opacity:1.;"/>
</radialGradient>
</defs>
<ellipse fill="url(#node6_r_5)" stroke="white:#770000" cx="126" cy="-18" rx="18" ry="18"/>
<text text-anchor="middle" x="126" y="-12.95" font-family="Arial Black" font-size="14.00">5</text>
</g>
<!-- 6&#45;&gt;5 -->
<g id="edge5" class="edge">
<title>6&#45;&gt;5</title>
<path fill="none" stroke="black" stroke-dasharray="5,2" d="M126,-71.7C126,-64.41 126,-55.73 126,-47.54"/>
<polygon fill="black" stroke="black" points="129.5,-47.62 126,-37.62 122.5,-47.62 129.5,-47.62"/>
</g>
<!-- 7 -->
<g id="node7" class="node">
<title>7</title>
<defs>
<radialGradient id="node7_r_6" cx="50%" cy="50%" r="75%" fx="33%" fy="3%">
<stop offset="0" style="stop-color:white;stop-opacity:1.;"/>
<stop offset="1" style="stop-color:#ff7700;stop-opacity:1.;"/>
</radialGradient>
</defs>
<ellipse fill="url(#node7_r_6)" stroke="white:#770000" cx="180" cy="-18" rx="18" ry="18"/>
<text text-anchor="middle" x="180" y="-12.95" font-family="Arial Black" font-size="14.00">7</text>
</g>
<!-- 6&#45;&gt;7 -->
<g id="edge6" class="edge">
<title>6&#45;&gt;7</title>
<path fill="none" stroke="black" stroke-dasharray="5,2" d="M136.67,-75.17C143.99,-65.68 153.88,-52.86 162.36,-41.86"/>
<polygon fill="black" stroke="black" points="165.09,-44.06 168.43,-34 159.55,-39.78 165.09,-44.06"/>
</g>
</g>
</svg>
